<?xml version="1.0" encoding="UTF-8" standalone="no"?>
<!-- Created with Inkscape (http://www.inkscape.org/) -->

<svg
   width="210mm"
   height="297mm"
   viewBox="0 0 210 297"
   version="1.1"
   id="svg1"
   inkscape:version="1.3.1 (91b66b0, 2023-11-16)"
   sodipodi:docname="problem.svg"
   inkscape:export-filename="problem.pdf"
   inkscape:export-xdpi="96"
   inkscape:export-ydpi="96"
   xmlns:inkscape="http://www.inkscape.org/namespaces/inkscape"
   xmlns:sodipodi="http://sodipodi.sourceforge.net/DTD/sodipodi-0.dtd"
   xmlns="http://www.w3.org/2000/svg"
   xmlns:svg="http://www.w3.org/2000/svg">
  <sodipodi:namedview
     id="namedview1"
     pagecolor="#ffffff"
     bordercolor="#000000"
     borderopacity="0.25"
     inkscape:showpageshadow="2"
     inkscape:pageopacity="0.0"
     inkscape:pagecheckerboard="0"
     inkscape:deskcolor="#d1d1d1"
     inkscape:document-units="mm"
     inkscape:zoom="1.8190144"
     inkscape:cx="386.7479"
     inkscape:cy="197.08475"
     inkscape:window-width="1440"
     inkscape:window-height="786"
     inkscape:window-x="0"
     inkscape:window-y="25"
     inkscape:window-maximized="0"
     inkscape:current-layer="layer1"
     showgrid="true">
    <inkscape:grid
       id="grid1"
       units="mm"
       originx="0"
       originy="0"
       spacingx="2.5"
       spacingy="2.5"
       empcolor="#0099e5"
       empopacity="0.30196078"
       color="#0099e5"
       opacity="0.14901961"
       empspacing="4"
       dotted="false"
       gridanglex="30"
       gridanglez="30"
       visible="true" />
  </sodipodi:namedview>
  <defs
     id="defs1" />
  <g
     inkscape:label="Layer 1"
     inkscape:groupmode="layer"
     id="layer1">
    <path
       style="fill:none;stroke:#000000;stroke-width:0.572727;stroke-linecap:square;stroke-linejoin:bevel;stroke-dasharray:none;paint-order:stroke fill markers"
       d="M 150,69.31818 V 31.136361"
       id="path2"
       sodipodi:nodetypes="cc" />
    <path
       style="fill:none;stroke:#000000;stroke-width:0.572727;stroke-linejoin:round;stroke-dasharray:none;paint-order:stroke fill markers"
       d="m 150,64.545453 9.54546,4.772727"
       id="path3"
       sodipodi:nodetypes="cc" />
    <path
       style="fill:none;stroke:#000000;stroke-width:0.572727;stroke-linejoin:round;stroke-dasharray:none;paint-order:stroke fill markers"
       d="m 150,57.386362 9.54546,4.772727"
       id="path3-5"
       sodipodi:nodetypes="cc" />
    <path
       style="fill:none;stroke:#000000;stroke-width:0.572727;stroke-linejoin:round;stroke-dasharray:none;paint-order:stroke fill markers"
       d="m 150,50.227271 9.54546,4.772727"
       id="path3-8"
       sodipodi:nodetypes="cc" />
    <path
       style="fill:none;stroke:#000000;stroke-width:0.572727;stroke-linejoin:round;stroke-dasharray:none;paint-order:stroke fill markers"
       d="m 150,43.068183 9.54546,4.772724"
       id="path3-5-3"
       sodipodi:nodetypes="cc" />
    <path
       style="fill:none;stroke:#000000;stroke-width:0.572727;stroke-linejoin:round;stroke-dasharray:none;paint-order:stroke fill markers"
       d="m 150,35.909092 9.54546,4.772728"
       id="path3-1"
       sodipodi:nodetypes="cc" />
    <path
       style="fill:none;stroke:#000000;stroke-width:0.572727;stroke-linecap:square;stroke-linejoin:bevel;stroke-dasharray:none;paint-order:stroke fill markers"
       d="M 54.545457,31.136361 V 69.31818"
       id="path2-0"
       sodipodi:nodetypes="cc" />
    <path
       style="fill:none;stroke:#000000;stroke-width:0.572727;stroke-linejoin:round;stroke-dasharray:none;paint-order:stroke fill markers"
       d="M 54.545457,40.681825 45.000002,35.909098"
       id="path3-8-1-9"
       sodipodi:nodetypes="cc" />
    <path
       style="fill:none;stroke:#000000;stroke-width:0.572727;stroke-linejoin:round;stroke-dasharray:none;paint-order:stroke fill markers"
       d="M 54.545457,47.840916 45.000002,43.068195"
       id="path3-5-3-8-5"
       sodipodi:nodetypes="cc" />
    <path
       style="fill:none;stroke:#000000;stroke-width:0.572727;stroke-linejoin:round;stroke-dasharray:none;paint-order:stroke fill markers"
       d="M 54.545455,33.522728 45.000004,28.750001"
       id="path4-6" />
    <path
       style="fill:none;stroke:#000000;stroke-width:0.572727;stroke-linejoin:round;stroke-dasharray:none;paint-order:stroke fill markers"
       d="M 54.545457,55.000013 45,50.227286"
       id="path3-1-5-2"
       sodipodi:nodetypes="cc" />
    <path
       style="fill:none;stroke:#000000;stroke-width:0.572727;stroke-linejoin:round;stroke-dasharray:none;paint-order:stroke fill markers"
       d="M 54.545457,69.318199 45.000002,64.54548"
       id="path3-8-1-2-8"
       sodipodi:nodetypes="cc" />
    <path
       style="fill:none;stroke:#000000;stroke-width:0.572727;stroke-linejoin:round;stroke-dasharray:none;paint-order:stroke fill markers"
       d="M 54.545455,62.15911 45.000004,57.386383"
       id="path4-7-5" />
    <ellipse
       style="fill:none;stroke:#000000;stroke-width:0.477273;stroke-linecap:round;stroke-linejoin:bevel;stroke-dasharray:none;paint-order:stroke fill markers"
       id="path7"
       cx="90.340912"
       cy="50.227318"
       rx="2.3863637"
       ry="2.3863635" />
    <path
       style="fill:none;stroke:#000000;stroke-width:0.286364;stroke-linecap:butt;stroke-linejoin:miter;stroke-dasharray:none;paint-order:stroke fill markers"
       d="m 87.954553,50.227271 -4.77273,2e-6 c -0.07558,0.605754 -0.212384,1.551327 -0.403305,2.080527 -0.190852,0.529391 -0.435211,0.982036 -0.712322,1.301236 -0.277108,0.319391 -0.586364,0.505337 -0.898832,0.533973 -0.312467,0.02864 -0.627553,-0.09908 -0.915577,-0.368264 -0.288023,-0.269181 -0.548688,-0.6783 -0.758595,-1.177527 -0.209981,-0.499036 -0.369342,-1.086464 -0.467355,-1.689545 -0.09809,-0.603082 -0.134934,-1.220482 -0.115271,-1.775264 0.01964,-0.554973 0.0954,-1.046564 0.208635,-1.413491 0.113324,-0.366736 0.263585,-0.608427 0.422879,-0.694527 0.159295,-0.0861 0.327123,-0.01718 0.473188,0.199309 0.146064,0.2163 0.270012,0.578645 0.346929,1.042936 0.07692,0.4641 0.106737,1.028427 0.0761,1.623491 -0.03072,0.594873 -0.121628,1.218764 -0.271203,1.794355 -0.149577,0.5754 -0.357321,1.101545 -0.607146,1.512572 -0.249826,0.410837 -0.541064,0.706364 -0.847104,0.848973 -0.306039,0.1428 -0.626356,0.133064 -0.930451,-0.02845 -0.304172,-0.161509 -0.591748,-0.473837 -0.836264,-0.898991 -0.244518,-0.425155 -0.445912,-0.961418 -0.588158,-1.542737 -0.142247,-0.581318 -0.225678,-1.206163 -0.248854,-1.797027 -0.02316,-0.590864 0.01336,-1.1466 0.09607,-1.5981 0.08276,-0.451309 0.210957,-0.798 0.359637,-0.995973 0.14868,-0.197972 0.31717,-0.2478 0.475281,-0.142418 0.158111,0.105382 0.305357,0.364827 0.413908,0.746836 0.108532,0.3822 0.178309,0.885437 0.190919,1.447855 0.0126,0.562609 -0.03184,1.182682 -0.137397,1.783664 -0.10563,0.600791 -0.272027,1.181345 -0.488212,1.669118 -0.216188,0.487773 -0.481637,0.882191 -0.772949,1.133809 -0.291312,0.251427 -0.607893,0.360246 -0.919838,0.312136 -0.312018,-0.04811 -0.61888,-0.252381 -0.89188,-0.588 -0.272923,-0.335809 -0.511762,-0.801436 -0.695951,-1.339991 -0.184113,-0.538554 -0.313672,-1.148318 -0.381616,-1.753881 -0.06794,-0.605564 -0.07461,-1.2054 -0.02818,-1.725055 0.04643,-0.519845 0.145301,-0.958555 0.275239,-1.261336 0.12999,-0.302782 0.290335,-0.469637 0.452035,-0.479182 0.161681,-0.0094 0.324116,0.137645 0.457637,0.424009 0.133579,0.286173 0.238024,0.710182 0.290715,1.219909 0.05263,0.509727 0.05366,1.103646 -0.0069,1.708255 -0.06056,0.604609 -0.182242,1.218572 -0.359785,1.765527 -0.177469,0.546955 -0.410247,1.025945 -0.67906,1.377218 -0.268737,0.351273 -0.572907,0.574827 -0.884178,0.641646 -0.311274,0.06701 -0.629124,-0.02157 -0.923353,-0.255819 -0.294304,-0.234245 -0.564686,-0.612627 -0.786777,-1.088945 -0.222092,-0.476127 -0.395884,-1.048855 -0.508769,-1.646973 -0.112942,-0.598309 -0.165212,-1.220673 -0.159676,-1.789964 0.0057,-0.56929 0.06892,-1.084363 0.172754,-1.480881 0.103759,-0.396709 0.247588,-0.674482 0.404267,-0.798573 0.156679,-0.1239 0.325691,-0.09431 0.4767,0.08572 0.151009,0.180027 0.28353,0.509346 0.371673,0.947864 0.08822,0.438518 0.131842,0.984709 0.115806,1.571182 -0.01604,0.586472 -0.09135,1.2117 -0.226501,1.797981 -0.135163,0.586282 -0.329587,1.132855 -0.568798,1.571182 -0.239284,0.438328 -0.522747,0.768219 -0.82475,0.947864 -0.302078,0.179836 -0.622097,0.209809 -0.929781,0.08572 -0.307683,-0.124282 -0.602586,-0.401673 -0.857344,-0.798573 -0.254759,-0.396709 -0.469156,-0.91159 -0.625758,-1.480881 -0.156603,-0.569291 -0.255511,-1.191655 -0.293407,-1.789964 -0.03797,-0.598118 -0.01546,-1.171037 0.05569,-1.646973 0.07117,-0.476127 0.190393,-0.855082 0.333697,-1.088945 0.143373,-0.233864 0.310155,-0.323209 0.470347,-0.255819 0.160268,0.0672 0.31352,0.289991 0.431178,0.641646 0.117657,0.351464 0.199593,0.830264 0.225977,1.377218 0.02638,0.547146 -0.0027,1.160918 -0.0933,1.765527 -0.09061,0.60461 -0.242352,1.198719 -0.446203,1.708255 -0.203778,0.509536 -0.45906,0.933927 -0.743644,1.219909 -0.284661,0.285982 -0.598025,0.433746 -0.910717,0.424009 -0.312694,-0.0099 -0.62419,-0.176209 -0.905111,-0.479182 -0.280923,-0.302972 -0.530972,-0.7413 -0.728246,-1.261336 -0.19735,-0.519845 -0.34191,-1.119491 -0.424899,-1.725055 -0.08293,-0.605563 -0.104675,-1.215518 -0.07148,-1.753881 0.03326,-0.538364 0.120884,-1.004564 0.242947,-1.339991 0.121991,-0.335428 0.27779,-0.540082 0.438803,-0.588 0.160936,-0.04792 0.326515,0.06033 0.466757,0.312136 0.140242,0.251809 0.254843,0.645845 0.319943,1.133809 0.06502,0.487964 0.08064,1.068137 0.03513,1.669118 -0.04553,0.600982 -0.151983,1.221246 -0.315683,1.783664 -0.163705,0.562227 -0.384306,1.065846 -0.643923,1.447855 -0.259694,0.381818 -0.55781,0.641836 -0.866913,0.746836 -0.309179,0.105 -0.628747,0.05574 -0.92836,-0.142418 -0.299685,-0.198355 -0.579039,-0.544473 -0.812716,-0.995973 -0.233604,-0.451691 -0.421382,-1.007236 -0.549138,-1.5981 -0.12768,-0.591055 -0.19556,-1.2159 -0.204151,-1.797027 -0.0086,-0.581319 0.04149,-1.117964 0.135145,-1.542737 0.09358,-0.424772 0.230021,-0.737672 0.383111,-0.898991 0.153166,-0.161318 0.322411,-0.171436 0.477448,-0.02844 0.155037,0.1428 0.295344,0.437945 0.394025,0.848973 0.09876,0.411218 0.15561,0.936981 0.15414,1.512572 -0.0016,0.575782 -0.06145,1.199673 -0.181879,1.794355 -0.120502,0.594873 -0.301106,1.159582 -0.529103,1.623491 -0.228071,0.4641 -0.502938,0.827018 -0.800006,1.042936 -0.297145,0.216109 -0.615969,0.285791 -0.926268,0.199309 -0.3103,-0.08629 -0.611631,-0.3276 -0.875882,-0.694527 -0.264254,-0.367118 -0.4911,-0.858339 -0.661716,-1.413491 -0.170558,-0.554984 -0.284893,-1.172182 -0.337737,-1.775265 h -4.772727"
       id="path8"
       sodipodi:nodetypes="ccccsscsscscccccccssscsscccscsccssccccscccccccccscssccccscccccsccccscsccsscscccccccccccccscccscc" />
    <path
       style="fill:none;stroke:#000000;stroke-width:0.286364;stroke-linecap:butt;stroke-linejoin:miter;stroke-dasharray:none;paint-order:stroke fill markers"
       d="m 116.84412,50.22342 h -4.77273 c -0.0463,0.612637 -0.13005,1.568954 -0.24695,2.104168 -0.11686,0.535406 -0.26649,0.993195 -0.43617,1.316022 -0.16968,0.32302 -0.35904,0.511079 -0.55037,0.54004 -0.19133,0.02896 -0.38426,-0.100208 -0.56063,-0.372449 -0.17636,-0.27224 -0.33598,-0.686007 -0.4645,-1.190908 -0.12857,-0.504706 -0.22615,-1.098808 -0.28617,-1.708741 -0.0601,-0.609936 -0.0826,-1.23435 -0.0706,-1.795435 0.012,-0.561279 0.0584,-1.058456 0.12776,-1.429552 0.0694,-0.370904 0.16139,-0.615346 0.25894,-0.70242 0.0975,-0.08707 0.2003,-0.01737 0.28974,0.201573 0.0894,0.218759 0.16532,0.585221 0.21243,1.054788 0.0471,0.469373 0.0653,1.040113 0.0466,1.641937 -0.0189,0.601633 -0.0744,1.232612 -0.16605,1.814744 -0.0916,0.581938 -0.21879,1.114061 -0.37177,1.52976 -0.15298,0.415504 -0.3313,0.714388 -0.5187,0.858619 -0.18739,0.144423 -0.38352,0.134572 -0.56973,-0.02877 -0.18625,-0.163341 -0.36233,-0.47922 -0.51206,-0.909204 -0.14973,-0.429987 -0.27305,-0.972344 -0.36014,-1.560266 -0.0871,-0.587924 -0.13826,-1.219869 -0.15238,-1.817447 -0.0141,-0.597578 0.008,-1.159628 0.0588,-1.616259 0.0507,-0.456437 0.12917,-0.807066 0.22022,-1.007288 0.091,-0.200226 0.19421,-0.250626 0.29102,-0.144041 0.0968,0.106585 0.18698,0.368972 0.25344,0.755322 0.0665,0.386543 0.10926,0.895498 0.1169,1.464305 0.008,0.569003 -0.0195,1.19612 -0.0841,1.803931 -0.0647,0.607618 -0.16656,1.194768 -0.29894,1.688085 -0.13237,0.493315 -0.29492,0.892214 -0.47329,1.146692 -0.17837,0.254287 -0.37222,0.364346 -0.56323,0.315683 -0.19106,-0.04866 -0.37896,-0.255251 -0.54612,-0.594682 -0.16712,-0.339625 -0.31335,-0.810542 -0.42614,-1.355216 -0.11273,-0.544675 -0.19207,-1.161366 -0.23367,-1.77381 -0.0415,-0.612444 -0.0456,-1.219098 -0.0172,-1.744656 0.0284,-0.525752 0.089,-0.969447 0.16853,-1.275669 0.0796,-0.306222 0.17779,-0.474891 0.27679,-0.484627 0.099,-0.0095 0.19845,0.139211 0.28022,0.428828 0.0818,0.289424 0.14574,0.718251 0.178,1.233771 0.0323,0.515517 0.0329,1.116184 -0.004,1.727664 -0.0371,0.611478 -0.1116,1.232419 -0.2203,1.785588 -0.10866,0.553169 -0.2512,1.037602 -0.4158,1.392867 -0.16455,0.355265 -0.35079,0.581355 -0.5414,0.648936 -0.1906,0.06777 -0.38522,-0.02182 -0.56538,-0.258725 -0.1802,-0.236907 -0.34578,-0.619588 -0.48176,-1.101319 -0.13599,-0.481537 -0.2424,-1.060773 -0.31153,-1.665685 -0.0692,-0.605108 -0.1012,-1.234545 -0.0978,-1.810304 0.003,-0.575758 0.0422,-1.096684 0.10579,-1.497708 0.0635,-0.401217 0.1516,-0.682143 0.24754,-0.807647 0.096,-0.125312 0.19943,-0.09538 0.29189,0.08669 0.0925,0.18207 0.17361,0.515134 0.22758,0.958635 0.0541,0.443501 0.0806,0.995898 0.0709,1.589034 -0.01,0.593137 -0.0559,1.225468 -0.1387,1.818411 -0.0828,0.592944 -0.20182,1.145727 -0.34828,1.589035 -0.14653,0.443308 -0.3201,0.776945 -0.50501,0.958633 -0.18498,0.181879 -0.38092,0.212196 -0.56933,0.08669 -0.1884,-0.125695 -0.36897,-0.406235 -0.52497,-0.807645 -0.15599,-0.401218 -0.28726,-0.921949 -0.38316,-1.497708 -0.0959,-0.575761 -0.15645,-1.205196 -0.17966,-1.810303 -0.0232,-0.604915 -0.01,-1.184343 0.0341,-1.665686 0.0436,-0.481538 0.11659,-0.864799 0.20433,-1.10132 0.0878,-0.236521 0.18992,-0.326879 0.288,-0.258724 0.0982,0.06796 0.19197,0.293286 0.26402,0.648936 0.0721,0.355458 0.12215,0.839697 0.13837,1.392867 0.0162,0.553362 -0.002,1.174108 -0.0571,1.785588 -0.0555,0.611478 -0.14839,1.212338 -0.27321,1.727665 -0.12478,0.515326 -0.28109,0.944539 -0.45535,1.233771 -0.1743,0.289233 -0.36618,0.438753 -0.55765,0.428825 -0.19147,-0.01012 -0.38221,-0.178213 -0.55422,-0.484626 -0.172,-0.306415 -0.32513,-0.749723 -0.44591,-1.275668 -0.12085,-0.525752 -0.20936,-1.132211 -0.26018,-1.744655 -0.0508,-0.612444 -0.0641,-1.229331 -0.0438,-1.773811 0.0204,-0.544481 0.074,-1.015978 0.14875,-1.355216 0.0747,-0.33924 0.1701,-0.546229 0.26869,-0.594682 0.0986,-0.04845 0.19994,0.06101 0.28581,0.315683 0.0859,0.254671 0.15605,0.653184 0.1959,1.146692 0.0399,0.493508 0.0494,1.080273 0.0215,1.688083 -0.0279,0.607811 -0.0931,1.235123 -0.1933,1.803931 -0.10025,0.568617 -0.23532,1.077957 -0.39429,1.464307 -0.159,0.386156 -0.34155,0.649139 -0.53082,0.755322 -0.18933,0.106184 -0.38499,0.05638 -0.56845,-0.144041 -0.183506,-0.200607 -0.354559,-0.550658 -0.497645,-1.00729 -0.14303,-0.456822 -0.258012,-1.018681 -0.336247,-1.616257 -0.07818,-0.597771 -0.119662,-1.229716 -0.125007,-1.817447 -0.0053,-0.587924 0.02541,-1.130667 0.08276,-1.560266 0.05731,-0.429599 0.140853,-0.746055 0.234585,-0.909206 0.09379,-0.163151 0.197412,-0.173384 0.292351,-0.02877 0.09494,0.144423 0.180848,0.442922 0.241263,0.858619 0.0605,0.415892 0.0953,0.947629 0.0944,1.529761 -9.5e-4,0.582324 -0.0376,1.213303 -0.111356,1.814741 -0.07379,0.601633 -0.184361,1.172759 -0.32398,1.641939 -0.13965,0.469373 -0.30796,0.836415 -0.489858,1.054786 -0.181955,0.218566 -0.377179,0.289031 -0.567172,0.201575 -0.189992,-0.08726 -0.374502,-0.331323 -0.536317,-0.702419 -0.161814,-0.37129 -0.300735,-0.868081 -0.405181,-1.429552 -0.104466,-0.561279 -0.13377,-1.18164 -0.166129,-1.791572 h -4.77273"
       id="path8-9"
       sodipodi:nodetypes="ccccsscsscscccccccssscsscccscsccssccccscccccccccscssccccscccccsccccscsccsscscccccccccccccscccccc" />
    <ellipse
       style="fill:none;stroke:#000000;stroke-width:0.477273;stroke-linecap:round;stroke-linejoin:bevel;stroke-dasharray:none;paint-order:stroke fill markers"
       id="path7-4"
       cx="119.23048"
       cy="50.223457"
       rx="2.3863637"
       ry="2.3863635" />
    <path
       style="fill:none;stroke:#000000;stroke-width:0.286364;stroke-linecap:butt;stroke-linejoin:miter;stroke-dasharray:none;paint-order:stroke fill markers"
       d="m 150,50.227273 -4.77276,-0.0038 c -0.0598,0.608794 -0.16806,1.565111 -0.3191,2.100325 -0.15097,0.535406 -0.34429,0.993195 -0.56352,1.316022 -0.21922,0.32302 -0.46387,0.511079 -0.71106,0.54004 -0.24719,0.02896 -0.49646,-0.100208 -0.72431,-0.372448 -0.22786,-0.27224 -0.43407,-0.686007 -0.60012,-1.190908 -0.16611,-0.504707 -0.29218,-1.098808 -0.36973,-1.708742 -0.0776,-0.609935 -0.10664,-1.234349 -0.0912,-1.795435 0.0157,-0.561278 0.0755,-1.058455 0.16506,-1.429552 0.0896,-0.370904 0.20852,-0.615346 0.33454,-0.70242 0.12602,-0.08707 0.25878,-0.01737 0.37434,0.201574 0.11556,0.218759 0.21361,0.58522 0.27446,1.054788 0.0609,0.469373 0.0844,1.040113 0.0602,1.641936 -0.0243,0.601633 -0.0962,1.232613 -0.21454,1.814744 -0.11832,0.581939 -0.28267,1.114062 -0.48031,1.52976 -0.19764,0.415504 -0.42803,0.714388 -0.67014,0.85862 -0.24211,0.144422 -0.4955,0.134572 -0.73608,-0.02877 -0.24063,-0.163342 -0.46812,-0.47922 -0.66157,-0.909205 -0.19344,-0.429986 -0.35277,-0.972344 -0.46529,-1.560266 -0.11256,-0.587923 -0.17854,-1.219869 -0.19688,-1.817446 -0.0183,-0.597578 0.0105,-1.159628 0.076,-1.61626 0.0655,-0.456437 0.16689,-0.807066 0.2845,-1.007288 0.11762,-0.200225 0.25092,-0.250625 0.376,-0.144041 0.12506,0.106585 0.24155,0.368972 0.32744,0.755323 0.0859,0.386543 0.1411,0.895497 0.15103,1.464305 0.01,0.569003 -0.0252,1.19612 -0.10871,1.80393 -0.0836,0.607618 -0.21518,1.194769 -0.38622,1.688086 -0.17102,0.493314 -0.38103,0.892213 -0.61148,1.146691 -0.23046,0.254287 -0.4809,0.364346 -0.72768,0.315684 -0.24684,-0.04866 -0.4896,-0.255252 -0.70557,-0.594682 -0.21591,-0.339626 -0.40484,-0.810543 -0.55056,-1.355216 -0.14565,-0.544675 -0.24816,-1.161367 -0.3019,-1.773811 -0.0536,-0.612444 -0.0589,-1.219098 -0.0222,-1.744655 0.0367,-0.525752 0.11496,-0.969448 0.21774,-1.27567 0.10285,-0.306222 0.2297,-0.47489 0.35761,-0.484627 0.12792,-0.0095 0.25638,0.139211 0.36203,0.428828 0.10567,0.289424 0.1883,0.718252 0.22998,1.233771 0.0417,0.515518 0.0426,1.116184 -0.005,1.727664 -0.0479,0.611478 -0.14417,1.23242 -0.28462,1.785588 -0.1404,0.553169 -0.32455,1.037603 -0.53721,1.392867 -0.21259,0.355265 -0.45321,0.581355 -0.69947,0.648937 -0.24625,0.06777 -0.4977,-0.02182 -0.73046,-0.258726 -0.23283,-0.236907 -0.44673,-0.619588 -0.62242,-1.101318 -0.17569,-0.481538 -0.31318,-1.060773 -0.40249,-1.665686 -0.0893,-0.605107 -0.13069,-1.234544 -0.1263,-1.810303 0.005,-0.575759 0.0545,-1.096685 0.13667,-1.497709 0.0821,-0.401216 0.19588,-0.682143 0.31981,-0.807646 0.12396,-0.125313 0.25767,-0.09538 0.37712,0.08669 0.11945,0.18207 0.22431,0.515134 0.29403,0.958635 0.0699,0.443501 0.1042,0.995898 0.0916,1.589034 -0.0126,0.593137 -0.0723,1.225468 -0.17919,1.818411 -0.10691,0.592945 -0.26074,1.145728 -0.44997,1.589036 -0.18931,0.443308 -0.41356,0.776944 -0.65246,0.958633 -0.23897,0.181879 -0.49213,0.212195 -0.73555,0.08669 -0.24341,-0.125694 -0.47671,-0.406235 -0.67824,-0.807644 -0.20154,-0.401219 -0.37114,-0.92195 -0.49504,-1.497709 -0.1239,-0.575761 -0.20213,-1.205196 -0.23212,-1.810303 -0.0301,-0.604915 -0.0122,-1.184343 0.044,-1.665686 0.0563,-0.481537 0.15063,-0.864799 0.26399,-1.10132 0.11342,-0.236521 0.24536,-0.326878 0.37209,-0.258724 0.12678,0.06796 0.24802,0.293286 0.3411,0.648936 0.0931,0.355458 0.15781,0.839697 0.17877,1.392867 0.0209,0.553362 -0.002,1.174109 -0.0738,1.785589 -0.0717,0.611478 -0.19172,1.212337 -0.35298,1.727664 -0.16121,0.515327 -0.36316,0.94454 -0.5883,1.233771 -0.2252,0.289233 -0.4731,0.438753 -0.72047,0.428826 -0.24737,-0.01012 -0.4938,-0.178214 -0.71603,-0.484627 -0.22224,-0.306415 -0.42006,-0.749723 -0.57611,-1.275668 -0.15613,-0.525752 -0.27049,-1.132211 -0.33614,-1.744655 -0.0657,-0.612444 -0.0828,-1.229331 -0.0566,-1.773811 0.0263,-0.54448 0.0956,-1.015978 0.19219,-1.355216 0.0965,-0.33924 0.21976,-0.546229 0.34714,-0.594682 0.12732,-0.04845 0.25831,0.06101 0.36925,0.315684 0.11094,0.254671 0.2016,0.653184 0.25311,1.146691 0.0515,0.493508 0.0638,1.080273 0.0278,1.688084 -0.036,0.60781 -0.12021,1.235122 -0.24973,1.80393 -0.12951,0.568617 -0.30402,1.077957 -0.50941,1.464307 -0.20544,0.386156 -0.44128,0.649139 -0.68581,0.755323 -0.24459,0.106183 -0.4974,0.05638 -0.73443,-0.144041 -0.23708,-0.200608 -0.45808,-0.550659 -0.64293,-1.00729 -0.1848,-0.456823 -0.33336,-1.018682 -0.43443,-1.616258 -0.10101,-0.59777 -0.15463,-1.229716 -0.1615,-1.817447 -0.007,-0.587923 0.0328,-1.130666 0.10692,-1.560265 0.074,-0.429599 0.18196,-0.746056 0.30308,-0.909207 0.12117,-0.163151 0.25505,-0.173383 0.37771,-0.02877 0.12266,0.144423 0.23365,0.442923 0.31171,0.85862 0.0781,0.415891 0.1231,0.947628 0.12194,1.52976 -0.001,0.582324 -0.0486,1.213304 -0.14387,1.814742 -0.0953,0.601633 -0.23821,1.172758 -0.41858,1.641938 -0.18043,0.469373 -0.39787,0.836415 -0.63288,1.054786 -0.23507,0.218566 -0.48731,0.289031 -0.73277,0.201576 -0.24548,-0.08726 -0.48385,-0.331323 -0.69291,-0.70242 -0.20905,-0.371289 -0.38855,-0.868081 -0.52348,-1.429552 -0.13496,-0.561279 -0.22537,-1.185502 -0.24685,-1.793503 l -4.75239,0.0019"
       id="path8-9-6"
       sodipodi:nodetypes="ccccsscsscscccccccssscsscccscsccssccccscccccccccscssccccscccccsccccscsccsscscccccccccccccscccccc" />
    <path
       style="fill:none;stroke:#000000;stroke-width:0.286364;stroke-linecap:butt;stroke-linejoin:miter;stroke-dasharray:none;paint-order:stroke fill markers"
       d="M 54.545455,76.47727 H 150"
       id="path9" />
    <path
       style="fill:none;stroke:#000000;stroke-width:0.286364;stroke-linecap:butt;stroke-linejoin:miter;stroke-dasharray:none;paint-order:stroke fill markers"
       d="m 54.545455,74.090906 v 4.772727"
       id="path10" />
    <path
       style="fill:none;stroke:#000000;stroke-width:0.286364;stroke-linecap:butt;stroke-linejoin:miter;stroke-dasharray:none;paint-order:stroke fill markers"
       d="m 150,74.090906 v 4.772727"
       id="path11" />
    <path
       style="fill:none;stroke:#000000;stroke-width:0.286364;stroke-linecap:butt;stroke-linejoin:miter;stroke-dasharray:none;paint-order:stroke fill markers"
       d="M 90.340909,78.863633 V 74.090906"
       id="path12" />
    <path
       style="fill:none;stroke:#000000;stroke-width:0.286364;stroke-linecap:butt;stroke-linejoin:miter;stroke-dasharray:none;paint-order:stroke fill markers"
       d="M 119.23047,78.863633 V 74.090906"
       id="path13" />
    <text
       xml:space="preserve"
       style="font-size:4.23333px;font-family:Arial;-inkscape-font-specification:Arial;fill:#000000;fill-opacity:1;stroke:none;stroke-width:0.286364;stroke-linecap:butt;stroke-linejoin:miter;stroke-dasharray:none;paint-order:stroke fill markers"
       x="53.260677"
       y="84.10025"
       id="text13"><tspan
         sodipodi:role="line"
         id="tspan13"
         style="font-size:4.23333px;fill:#000000;fill-opacity:1;stroke:none;stroke-width:0.286364"
         x="53.260677"
         y="84.10025">\Large 0</tspan></text>
    <text
       xml:space="preserve"
       style="font-size:4.23333px;font-family:Arial;-inkscape-font-specification:Arial;fill:#000000;fill-opacity:1;stroke:none;stroke-width:0.286364;stroke-linecap:butt;stroke-linejoin:miter;stroke-dasharray:none;paint-order:stroke fill markers"
       x="88.219124"
       y="84.446274"
       id="text14"><tspan
         sodipodi:role="line"
         id="tspan14"
         style="font-size:4.23333px;fill:#000000;fill-opacity:1;stroke:none;stroke-width:0.286364"
         x="88.219124"
         y="84.446274">\Large $x_1$</tspan></text>
    <text
       xml:space="preserve"
       style="font-size:4.23333px;font-family:Arial;-inkscape-font-specification:Arial;fill:#000000;fill-opacity:1;stroke:none;stroke-width:0.286364;stroke-linecap:butt;stroke-linejoin:miter;stroke-dasharray:none;paint-order:stroke fill markers"
       x="117.40424"
       y="84.446274"
       id="text14-0"><tspan
         sodipodi:role="line"
         id="tspan14-9"
         style="font-size:4.23333px;fill:#000000;fill-opacity:1;stroke:none;stroke-width:0.286364"
         x="117.40424"
         y="84.446274">\Large $x_2$</tspan></text>
    <text
       xml:space="preserve"
       style="font-size:4.23333px;font-family:Arial;-inkscape-font-specification:Arial;fill:none;stroke:#000000;stroke-width:0.15;stroke-linecap:butt;stroke-linejoin:miter;stroke-dasharray:none;paint-order:stroke fill markers"
       x="86.51339"
       y="54.999996"
       id="text15"><tspan
         sodipodi:role="line"
         id="tspan15"
         style="stroke-width:0.15"
         x="86.51339"
         y="54.999996" /></text>
    <text
       xml:space="preserve"
       style="font-size:4.23333px;font-family:Arial;-inkscape-font-specification:Arial;fill:#000000;fill-opacity:1;stroke:none;stroke-width:0.286364;stroke-linecap:butt;stroke-linejoin:miter;stroke-dasharray:none;paint-order:stroke fill markers"
       x="148.21123"
       y="84.446274"
       id="text16"><tspan
         sodipodi:role="line"
         id="tspan16"
         style="font-size:4.23333px;fill:#000000;fill-opacity:1;stroke:none;stroke-width:0.286364"
         x="148.21123"
         y="84.446274">\Large $L$</tspan></text>
    <text
       xml:space="preserve"
       style="font-size:4.23333px;font-family:Arial;-inkscape-font-specification:Arial;fill:none;stroke:#000000;stroke-width:0.15;stroke-linecap:butt;stroke-linejoin:miter;stroke-dasharray:none;paint-order:stroke fill markers"
       x="68.824997"
       y="63.429996"
       id="text17"><tspan
         sodipodi:role="line"
         id="tspan17"
         style="stroke-width:0.15"
         x="68.824997"
         y="63.429996" /></text>
    <text
       xml:space="preserve"
       style="font-size:4.23333px;font-family:Arial;-inkscape-font-specification:Arial;fill:#000000;fill-opacity:1;stroke:none;stroke-width:0.15;stroke-linecap:butt;stroke-linejoin:miter;stroke-dasharray:none;paint-order:stroke fill markers"
       x="65"
       y="97.5"
       id="text18"><tspan
         sodipodi:role="line"
         id="tspan18"
         style="stroke-width:0.15"
         x="65"
         y="97.5" /></text>
    <text
       xml:space="preserve"
       style="font-size:4.23333px;font-family:Arial;-inkscape-font-specification:Arial;fill:#000000;fill-opacity:1;stroke:none;stroke-width:0.15;stroke-linecap:butt;stroke-linejoin:miter;stroke-dasharray:none;paint-order:stroke fill markers"
       x="88.633614"
       y="51.399288"
       id="text19"><tspan
         sodipodi:role="line"
         id="tspan19"
         style="stroke-width:0.15"
         x="88.633614"
         y="51.399288">$m$</tspan></text>
    <text
       xml:space="preserve"
       style="font-size:4.23333px;font-family:Arial;-inkscape-font-specification:Arial;fill:#000000;fill-opacity:1;stroke:none;stroke-width:0.15;stroke-linecap:butt;stroke-linejoin:miter;stroke-dasharray:none;paint-order:stroke fill markers"
       x="117.52303"
       y="51.395477"
       id="text19-5"><tspan
         sodipodi:role="line"
         id="tspan19-5"
         style="stroke-width:0.15"
         x="117.52303"
         y="51.395477">$m$</tspan></text>
    <text
       xml:space="preserve"
       style="font-size:4.23333px;font-family:Arial;-inkscape-font-specification:Arial;fill:#000000;fill-opacity:1;stroke:none;stroke-width:0.15;stroke-linecap:butt;stroke-linejoin:miter;stroke-dasharray:none;paint-order:stroke fill markers"
       x="68.449135"
       y="58.936604"
       id="text19-4"><tspan
         sodipodi:role="line"
         id="tspan19-3"
         style="stroke-width:0.15"
         x="68.449135"
         y="58.936604">$k$</tspan></text>
    <text
       xml:space="preserve"
       style="font-size:4.23333px;font-family:Arial;-inkscape-font-specification:Arial;fill:#000000;fill-opacity:1;stroke:none;stroke-width:0.15;stroke-linecap:butt;stroke-linejoin:miter;stroke-dasharray:none;paint-order:stroke fill markers"
       x="101.98491"
       y="58.964046"
       id="text19-4-2"><tspan
         sodipodi:role="line"
         id="tspan19-3-1"
         style="stroke-width:0.15"
         x="101.98491"
         y="58.964046">$k$</tspan></text>
    <text
       xml:space="preserve"
       style="font-size:4.23333px;font-family:Arial;-inkscape-font-specification:Arial;fill:#000000;fill-opacity:1;stroke:none;stroke-width:0.15;stroke-linecap:butt;stroke-linejoin:miter;stroke-dasharray:none;paint-order:stroke fill markers"
       x="133.00771"
       y="58.964046"
       id="text19-4-0"><tspan
         sodipodi:role="line"
         id="tspan19-3-9"
         style="stroke-width:0.15"
         x="133.00771"
         y="58.964046">$k$</tspan></text>
  </g>
</svg>
